<svg width="21" height="16" viewBox="0 0 21 16" fill="none" xmlns="http://www.w3.org/2000/svg">
<path d="M0.0272217 2.44354L10.0234 7.62893L20.0197 2.44354C19.9826 1.78265 19.7035 1.16144 19.2394 0.707157C18.7753 0.252869 18.1614 -0.000121379 17.5234 4.36873e-08H2.52346C1.88545 -0.000121379 1.27153 0.252869 0.807441 0.707157C0.343356 1.16144 0.0642267 1.78265 0.0272217 2.44354Z" fill="#ED6807"/>
<path d="M20.0234 5.34106L10.0234 10.5291L0.0234375 5.34106V12.97C0.0234375 13.658 0.28683 14.3178 0.75567 14.8042C1.22451 15.2907 1.8604 15.564 2.52344 15.564H17.5234C18.1865 15.564 18.8224 15.2907 19.2912 14.8042C19.76 14.3178 20.0234 13.658 20.0234 12.97V5.34106Z" fill="#ED6807"/>
</svg>
