<svg width="11" height="15" viewBox="0 0 11 15" fill="none" xmlns="http://www.w3.org/2000/svg">
<path d="M5.02344 0C2.25915 0 0.0234375 2.3475 0.0234375 5.25C0.0234375 9.1875 5.02344 15 5.02344 15C5.02344 15 10.0234 9.1875 10.0234 5.25C10.0234 2.3475 7.78772 0 5.02344 0ZM5.02344 7.125C4.54984 7.125 4.09563 6.92746 3.76075 6.57583C3.42586 6.22419 3.23772 5.74728 3.23772 5.25C3.23772 4.75272 3.42586 4.27581 3.76075 3.92417C4.09563 3.57254 4.54984 3.375 5.02344 3.375C5.49704 3.375 5.95124 3.57254 6.28613 3.92417C6.62101 4.27581 6.80915 4.75272 6.80915 5.25C6.80915 5.74728 6.62101 6.22419 6.28613 6.57583C5.95124 6.92746 5.49704 7.125 5.02344 7.125Z" fill="#ED6807"/>
</svg>
