<svg width="107" height="74" viewBox="0 0 107 74" fill="none" xmlns="http://www.w3.org/2000/svg">
<g opacity="0.05">
<path d="M48.709 43.6055C48.709 53.4362 46.6745 60.9557 42.6055 66.1641C38.5365 71.3724 32.5794 73.9766 24.7344 73.9766C16.987 73.9766 11.0625 71.4212 6.96094 66.3105C2.85938 61.1999 0.759766 53.8757 0.662109 44.3379V31.252C0.662109 21.3236 2.71289 13.7878 6.81445 8.64453C10.9486 3.5013 16.8893 0.929688 24.6367 0.929688C32.3841 0.929688 38.3086 3.48503 42.4102 8.5957C46.5117 13.6738 48.6113 20.9818 48.709 30.5195V43.6055ZM34.5977 29.25C34.5977 23.3581 33.7839 19.0775 32.1562 16.4082C30.5612 13.7064 28.0547 12.3555 24.6367 12.3555C21.3164 12.3555 18.8587 13.6413 17.2637 16.2129C15.7012 18.752 14.8711 22.7396 14.7734 28.1758V45.4609C14.7734 51.2552 15.5547 55.5684 17.1172 58.4004C18.7122 61.1999 21.2513 62.5996 24.7344 62.5996C28.1849 62.5996 30.6751 61.2487 32.2051 58.5469C33.735 55.8451 34.5326 51.7109 34.5977 46.1445V29.25Z" fill="#1C1C1C"/>
<path d="M107.01 73H58.2793V63.332L81.2773 38.8203C84.4349 35.3698 86.7624 32.3587 88.2598 29.7871C89.7897 27.2155 90.5547 24.7741 90.5547 22.4629C90.5547 19.3053 89.7572 16.8314 88.1621 15.041C86.5671 13.2181 84.2884 12.3066 81.3262 12.3066C78.1361 12.3066 75.6133 13.4134 73.7578 15.627C71.9349 17.8079 71.0234 20.6888 71.0234 24.2695H56.8633C56.8633 19.9401 57.8887 15.985 59.9395 12.4043C62.0228 8.82357 64.9525 6.02409 68.7285 4.00586C72.5046 1.95508 76.7852 0.929688 81.5703 0.929688C88.8945 0.929688 94.5749 2.6875 98.6113 6.20312C102.68 9.71875 104.715 14.6829 104.715 21.0957C104.715 24.6113 103.803 28.1921 101.98 31.8379C100.158 35.4837 97.0326 39.7318 92.6055 44.582L76.4434 61.623H107.01V73Z" fill="#1C1C1C"/>
</g>
</svg>
