<svg width="106" height="74" viewBox="0 0 106 74" fill="none" xmlns="http://www.w3.org/2000/svg">
<g opacity="0.05">
<path d="M48.709 43.6055C48.709 53.4362 46.6745 60.9557 42.6055 66.1641C38.5365 71.3724 32.5794 73.9766 24.7344 73.9766C16.987 73.9766 11.0625 71.4212 6.96094 66.3105C2.85938 61.1999 0.759766 53.8757 0.662109 44.3379V31.252C0.662109 21.3236 2.71289 13.7878 6.81445 8.64453C10.9486 3.5013 16.8893 0.929688 24.6367 0.929688C32.3841 0.929688 38.3086 3.48503 42.4102 8.5957C46.5117 13.6738 48.6113 20.9818 48.709 30.5195V43.6055ZM34.5977 29.25C34.5977 23.3581 33.7839 19.0775 32.1562 16.4082C30.5612 13.7064 28.0547 12.3555 24.6367 12.3555C21.3164 12.3555 18.8587 13.6413 17.2637 16.2129C15.7012 18.752 14.8711 22.7396 14.7734 28.1758V45.4609C14.7734 51.2552 15.5547 55.5684 17.1172 58.4004C18.7122 61.1999 21.2513 62.5996 24.7344 62.5996C28.1849 62.5996 30.6751 61.2487 32.2051 58.5469C33.735 55.8451 34.5326 51.7109 34.5977 46.1445V29.25Z" fill="#1C1C1C"/>
<path d="M72.6348 31.2031H80.1543C83.735 31.2031 86.388 30.3079 88.1133 28.5176C89.8385 26.7272 90.7012 24.3509 90.7012 21.3887C90.7012 18.5241 89.8385 16.2943 88.1133 14.6992C86.4206 13.1042 84.0768 12.3066 81.082 12.3066C78.3802 12.3066 76.1178 13.0553 74.2949 14.5527C72.472 16.0176 71.5605 17.9382 71.5605 20.3145H57.4492C57.4492 16.6035 58.4421 13.2832 60.4277 10.3535C62.446 7.39128 65.2454 5.08008 68.8262 3.41992C72.4395 1.75977 76.4108 0.929688 80.7402 0.929688C88.2598 0.929688 94.1517 2.73633 98.416 6.34961C102.68 9.93034 104.812 14.8783 104.812 21.1934C104.812 24.4486 103.82 27.4434 101.834 30.1777C99.8483 32.9121 97.2441 35.0117 94.0215 36.4766C98.0254 37.9089 101.004 40.0573 102.957 42.9219C104.943 45.7865 105.936 49.1719 105.936 53.0781C105.936 59.3932 103.624 64.4551 99.002 68.2637C94.4121 72.0723 88.3249 73.9766 80.7402 73.9766C73.6439 73.9766 67.8333 72.1048 63.3086 68.3613C58.8164 64.6178 56.5703 59.6699 56.5703 53.5176H70.6816C70.6816 56.1868 71.6745 58.3678 73.6602 60.0605C75.6784 61.7533 78.1523 62.5996 81.082 62.5996C84.4349 62.5996 87.0553 61.7207 88.9434 59.9629C90.8639 58.1725 91.8242 55.8125 91.8242 52.8828C91.8242 45.7865 87.918 42.2383 80.1055 42.2383H72.6348V31.2031Z" fill="#1C1C1C"/>
</g>
</svg>
