<svg width="93" height="74" viewBox="0 0 93 74" fill="none" xmlns="http://www.w3.org/2000/svg">
<g opacity="0.05">
<path d="M48.709 43.6055C48.709 53.4362 46.6745 60.9557 42.6055 66.1641C38.5365 71.3724 32.5794 73.9766 24.7344 73.9766C16.987 73.9766 11.0625 71.4212 6.96094 66.3105C2.85938 61.1999 0.759766 53.8757 0.662109 44.3379V31.252C0.662109 21.3236 2.71289 13.7878 6.81445 8.64453C10.9486 3.5013 16.8893 0.929688 24.6367 0.929688C32.3841 0.929688 38.3086 3.48503 42.4102 8.5957C46.5117 13.6738 48.6113 20.9818 48.709 30.5195V43.6055ZM34.5977 29.25C34.5977 23.3581 33.7839 19.0775 32.1562 16.4082C30.5612 13.7064 28.0547 12.3555 24.6367 12.3555C21.3164 12.3555 18.8587 13.6413 17.2637 16.2129C15.7012 18.752 14.8711 22.7396 14.7734 28.1758V45.4609C14.7734 51.2552 15.5547 55.5684 17.1172 58.4004C18.7122 61.1999 21.2513 62.5996 24.7344 62.5996C28.1849 62.5996 30.6751 61.2487 32.2051 58.5469C33.735 55.8451 34.5326 51.7109 34.5977 46.1445V29.25Z" fill="#1C1C1C"/>
<path d="M92.5566 73H78.4453V18.6055L61.5996 23.8301V12.3555L91.043 1.80859H92.5566V73Z" fill="#1C1C1C"/>
</g>
</svg>
